REM DIRINDEX 1\5,1\2\6,1\2\7,1\3\8,1\3\9,1\4\10,1\4\11,1\4\12
REM DIRNAME cjc026,folder01,folder02,folder03,folder04,folder05,folder06,folder07,folder08,folder09,folder10,folder11
TITLE ""
FILE "EJ_DB3000_5th_4B_30.mp3" MP3
  TRACK 01 AUDIO
    TITLE "0:"
    INDEX 01 00:00:00
  TRACK 02 AUDIO
    TITLE "9:cjc026_05053"
    INDEX 01 00:00:08
  TRACK 03 AUDIO
    TITLE "0:"
    INDEX 01 00:01:16
  TRACK 04 AUDIO
    TITLE "8:cjc026_05054"
    INDEX 01 00:01:54
  TRACK 05 AUDIO
    TITLE "0:"
    INDEX 01 00:03:04
  TRACK 06 AUDIO
    TITLE "9:cjc026_05055"
    INDEX 01 00:03:39
  TRACK 07 AUDIO
    TITLE "0:"
    INDEX 01 00:05:05
  TRACK 08 AUDIO
    TITLE "8:cjc026_05056"
    INDEX 01 00:05:43
  TRACK 09 AUDIO
    TITLE "0:"
    INDEX 01 00:06:73
  TRACK 10 AUDIO
    TITLE "9:cjc026_05057"
    INDEX 01 00:07:33
  TRACK 11 AUDIO
    TITLE "0:"
    INDEX 01 00:09:02
  TRACK 12 AUDIO
    TITLE "8:cjc026_05058"
    INDEX 01 00:09:37
  TRACK 13 AUDIO
    TITLE "0:"
    INDEX 01 00:11:06
  TRACK 14 AUDIO
    TITLE "9:cjc026_05059"
    INDEX 01 00:11:41
  TRACK 15 AUDIO
    TITLE "0:"
    INDEX 01 00:12:72
  TRACK 16 AUDIO
    TITLE "8:cjc026_05060"
    INDEX 01 00:13:34
  TRACK 17 AUDIO
    TITLE "0:"
    INDEX 01 00:14:59
  TRACK 18 AUDIO
    TITLE "9:cjc026_05061"
    INDEX 01 00:15:19
  TRACK 19 AUDIO
    TITLE "0:"
    INDEX 01 00:16:41
  TRACK 20 AUDIO
    TITLE "8:cjc026_05062"
    INDEX 01 00:17:02
  TRACK 21 AUDIO
    TITLE "0:"
    INDEX 01 00:18:00
  TRACK 22 AUDIO
    TITLE "9:cjc026_05063"
    INDEX 01 00:18:37
  TRACK 23 AUDIO
    TITLE "0:"
    INDEX 01 00:19:51
  TRACK 24 AUDIO
    TITLE "8:cjc026_05064"
    INDEX 01 00:20:12
  TRACK 25 AUDIO
    TITLE "0:"
    INDEX 01 00:21:23
  TRACK 26 AUDIO
    TITLE "9:cjc026_05065"
    INDEX 01 00:21:58
  TRACK 27 AUDIO
    TITLE "0:"
    INDEX 01 00:23:08
  TRACK 28 AUDIO
    TITLE "8:cjc026_05066"
    INDEX 01 00:23:43
  TRACK 29 AUDIO
    TITLE "0:"
    INDEX 01 00:24:63
  TRACK 30 AUDIO
    TITLE "9:cjc026_05067"
    INDEX 01 00:25:25
  TRACK 31 AUDIO
    TITLE "0:"
    INDEX 01 00:26:66
  TRACK 32 AUDIO
    TITLE "8:cjc026_05068"
    INDEX 01 00:27:27
  TRACK 33 AUDIO
    TITLE "0:"
    INDEX 01 00:28:57
  TRACK 34 AUDIO
    TITLE "9:cjc026_05069"
    INDEX 01 00:29:20
  TRACK 35 AUDIO
    TITLE "0:"
    INDEX 01 00:30:31
  TRACK 36 AUDIO
    TITLE "8:cjc026_05070"
    INDEX 01 00:30:69
  TRACK 37 AUDIO
    TITLE "0:"
    INDEX 01 00:32:24
  TRACK 38 AUDIO
    TITLE "9:cjc026_05071"
    INDEX 01 00:32:62
  TRACK 39 AUDIO
    TITLE "0:"
    INDEX 01 00:34:09
  TRACK 40 AUDIO
    TITLE "8:cjc026_05072"
    INDEX 01 00:34:44
  TRACK 41 AUDIO
    TITLE "0:"
    INDEX 01 00:35:64
  TRACK 42 AUDIO
    TITLE "9:cjc026_05073"
    INDEX 01 00:36:24
  TRACK 43 AUDIO
    TITLE "0:"
    INDEX 01 00:37:38
  TRACK 44 AUDIO
    TITLE "8:cjc026_05074"
    INDEX 01 00:38:01
  TRACK 45 AUDIO
    TITLE "0:"
    INDEX 01 00:39:26
  TRACK 46 AUDIO
    TITLE "9:cjc026_05075"
    INDEX 01 00:39:61
  TRACK 47 AUDIO
    TITLE "0:"
    INDEX 01 00:41:03
  TRACK 48 AUDIO
    TITLE "8:cjc026_05076"
    INDEX 01 00:41:40
  TRACK 49 AUDIO
    TITLE "0:"
    INDEX 01 00:43:12
  TRACK 50 AUDIO
    TITLE "9:cjc026_05077"
    INDEX 01 00:43:50
  TRACK 51 AUDIO
    TITLE "0:"
    INDEX 01 00:44:69
  TRACK 52 AUDIO
    TITLE "8:cjc026_05078"
    INDEX 01 00:45:32
  TRACK 53 AUDIO
    TITLE "0:"
    INDEX 01 00:47:03
  TRACK 54 AUDIO
    TITLE "9:cjc026_05079"
    INDEX 01 00:47:39
  TRACK 55 AUDIO
    TITLE "0:"
    INDEX 01 00:48:61
  TRACK 56 AUDIO
    TITLE "8:cjc026_05080"
    INDEX 01 00:49:21
  TRACK 57 AUDIO
    TITLE "0:"
    INDEX 01 00:51:06
  TRACK 58 AUDIO
    TITLE "9:cjc026_05081"
    INDEX 01 00:51:41
  TRACK 59 AUDIO
    TITLE "0:"
    INDEX 01 00:52:60
  TRACK 60 AUDIO
    TITLE "8:cjc026_05082"
    INDEX 01 00:53:21
  TRACK 61 AUDIO
    TITLE "0:"
    INDEX 01 00:54:51
